<svg width="160" height="148" viewBox="0 0 160 148" fill="none" xmlns="http://www.w3.org/2000/svg">
<path d="M79.2635 132.226L75.8836 136.308C74.581 137.878 72.2636 138.058 70.7314 136.703L15.4098 86.3873L20.6701 80.8558L78.7632 127.006C80.335 128.305 80.5602 130.657 79.2635 132.226Z" fill="#A06841"/>
<path d="M20.4676 90.9839L33.6355 102.962C34.9447 100.034 35.3321 96.7047 35.414 92.5658L22.9593 82.6731C22.2087 83.5354 21.5979 84.5242 21.18 85.5941C20.5108 87.295 20.3098 89.1456 20.4676 90.9839Z" fill="#7D5133"/>
<path d="M39.6077 69.7072C29.4468 71.1542 25.8366 72.6559 20.9607 78.535C19.5012 80.2964 18.0358 82.0586 16.5763 83.82C14.9845 85.7375 12.7553 87.5377 13.5796 90.303C13.8797 91.3113 14.3521 92.3053 14.3224 93.3585C14.2893 94.3504 13.2715 95.0012 12.4057 94.5737C11.5974 94.1682 10.6892 93.6609 9.7739 93.6914C8.91332 93.7257 8.06844 94.1338 7.52356 94.8102L4.14866 99.0017C4.14866 99.0017 3.94705 101.432 9.13525 105.861C14.3235 110.289 17.0973 109.484 17.0973 109.484L20.2764 105.582C20.8123 104.925 21.0029 104.057 20.8598 103.21C20.6895 102.224 20.0075 101.547 19.535 100.707C19.4443 100.548 18.9812 100.003 19.5434 99.3608C20.0398 98.7599 21.2472 98.7521 21.9456 98.8354C22.6498 98.9177 23.3356 99.114 24.0447 99.1894C25.421 99.3406 25.9399 98.6128 26.7362 97.657C27.435 96.8089 31.6625 91.7147 33.0717 90.0166C35.8841 86.6213 30.1337 82.3291 30.1337 82.3291C27.3657 79.9814 40.5043 70.9564 40.5043 70.9564C41.4792 70.4171 41.0141 69.5083 39.6077 69.7072Z" fill="#82AEC0"/>
<path d="M24.039 99.1903C24.3262 99.2199 24.5707 99.2068 24.7929 99.1663C24.7873 99.1301 24.7808 99.088 24.7752 99.0518C24.6159 98.4103 24.1791 97.8795 23.7488 97.3909C21.0295 94.3079 17.8316 91.6689 14.3125 89.5976C14.0215 89.4267 13.7188 89.2576 13.4148 89.1195C13.4129 89.4961 13.4617 89.8895 13.5865 90.3081C13.8867 91.3164 14.359 92.3104 14.3293 93.3636C14.2926 94.4486 13.2635 94.9099 12.374 94.6403C14.7373 95.7306 16.8746 97.3432 18.5522 99.366C18.7808 99.6391 19.0122 99.9302 19.2674 100.181C19.2511 99.8809 19.3375 99.5839 19.5494 99.3599C20.0458 98.7589 21.2532 98.7512 21.9516 98.8344C22.6441 98.9186 23.3357 99.114 24.039 99.1903Z" fill="#2F7889"/>
<path d="M12.1434 102.33C15.731 105.156 17.9932 108.316 17.1969 109.389C16.3948 110.462 12.8375 109.038 9.24409 106.214C5.65069 103.389 3.34758 100.081 4.14384 99.0086C4.9401 97.9356 8.55592 99.5047 12.1434 102.33Z" fill="#2F7889"/>
<path d="M21.497 83.4049C23.7803 81.9541 25.6111 79.3274 28.0693 76.3631C28.7739 75.5141 29.7023 74.6736 30.6802 73.9982C31.0439 73.7446 30.808 73.152 30.3694 73.2321C28.905 73.4831 27.6661 74.1433 26.4684 74.9144C24.7893 75.9942 23.3927 77.4621 22.0477 78.9529C21.1296 79.9768 18.9877 82.4975 17.6399 84.0874C17.3913 84.3848 17.675 84.7419 18.0576 84.6889C19.1626 84.5243 19.7886 84.4893 21.497 83.4049Z" fill="#B9E4EA"/>
<path d="M7.68439 96.2779C6.83513 97.6304 8.2009 97.7524 10.831 99.3628C12.6845 100.501 14.2236 98.9433 14.0401 97.6394C13.8713 96.4689 13.4925 95.886 11.6648 95.0706C9.84299 94.2543 8.45644 95.0484 7.68439 96.2779Z" fill="#B9E4EA"/>
<path d="M139.97 115.23L63.1 117.91C63.1 117.91 60.1 131.72 60.85 133.96C61.13 134.8 70.7 125.51 70.7 125.51C70.7 125.51 82.67 140.29 83.51 140.15C84.35 140.01 93.51 130.72 93.51 130.72C93.51 130.72 107.17 142.12 108.15 142.12C109.13 142.12 117.44 130.01 117.44 130.01C117.44 130.01 128 137.61 128.7 137.47C129.4 137.33 136.58 125.93 136.58 125.93C136.58 125.93 147.8 129.26 148.92 128.98C150.06 128.7 143.91 116.78 139.97 115.23Z" fill="#B1B1B1"/>
<path d="M59.16 73.98L58.5 56.29L70.47 44.75L97.03 45.13C97.03 45.13 104.07 51.47 105.9 52.59C107.73 53.72 114.14 56.97 125.73 71.18C131.9 78.75 136.88 91.44 138.28 94.82C139.68 98.2 149.12 127.9 149.12 128.75C149.12 129.6 137.58 119.32 136.87 119.88C136.17 120.44 129.41 133.39 128.56 133.68C127.72 133.96 118.28 124.53 117.3 124.95C116.32 125.37 108.57 138.75 108.01 138.75C107.45 138.75 95.91 124.38 94.5 124.1C93.09 123.82 84.5 135.78 83.38 135.78C82.25 135.78 71.98 119.17 70.71 119.17C69.44 119.17 61.51 132.22 60.81 132.78C60.11 133.34 58.6 112.27 58.32 109.74C58.04 107.21 59.16 73.98 59.16 73.98Z" fill="#E0E0E0"/>
<path d="M85.44 102.06C84.37 102.06 83.38 101.37 83.05 100.29L81.27 94.47C80.87 93.15 81.61 91.75 82.93 91.35C84.25 90.95 85.65 91.69 86.05 93.01L87.83 98.83C88.23 100.15 87.49 101.55 86.17 101.95C85.93 102.02 85.68 102.06 85.44 102.06Z" fill="white"/>
<path d="M105.81 108.63C104.83 108.63 103.9 108.05 103.5 107.09L100.68 100.33C100.15 99.05 100.75 97.59 102.03 97.06C103.31 96.53 104.77 97.13 105.3 98.41L108.12 105.17C108.65 106.45 108.05 107.91 106.77 108.44C106.46 108.57 106.13 108.63 105.81 108.63Z" fill="white"/>
<path d="M119.32 100.18C118.38 100.18 117.49 99.65 117.06 98.75L114.53 93.4C113.94 92.15 114.47 90.66 115.72 90.07C116.97 89.48 118.46 90.01 119.05 91.26L121.58 96.61C122.17 97.86 121.64 99.35 120.39 99.94C120.05 100.1 119.68 100.18 119.32 100.18Z" fill="white"/>
<path d="M103.18 82.91C102.39 82.91 101.61 82.53 101.12 81.83L96.52 75.17C95.74 74.03 96.02 72.48 97.16 71.69C98.3 70.9 99.85 71.19 100.64 72.33L105.24 78.99C106.02 80.13 105.74 81.68 104.6 82.47C104.17 82.77 103.67 82.91 103.18 82.91Z" fill="white"/>
<path d="M70.43 88.48C73.43 88.71 99.57 84.44 90.23 63.8C83.01 47.83 62.73 61.83 58.98 67.37C58.3 68.38 57.06 84.26 57.06 84.26C57.06 84.26 48.04 97.21 51 104.39C53.96 111.57 62.74 112.93 68.03 106.78C72.4 101.72 70.85 90.88 70.43 88.48Z" fill="#FF615E"/>
<path d="M61.13 57.23C63.21 54.01 70 47.23 80.7 46.81C91.4 46.39 96.89 48.5 98.86 49.34C100.83 50.18 106.46 53 106.46 53C106.46 53 117.04 48 116.62 37.02C116.2 26.04 104.92 25.27 100.55 27.67C96.18 30.07 95.48 33.58 92.24 33.72C89 33.86 86.47 25.98 76.33 29.92C67.7 33.28 70.48 41.55 67.32 43.58C63.8 45.83 56.2 41.05 50.85 48.51C45.5 55.97 52.12 62.73 53.52 63.86C54.93 64.99 59.57 67.57 59.57 67.57C59.57 67.57 58.04 62.02 61.13 57.23Z" fill="#FF615E"/>
<path d="M67.42 84.07C68.72 83.38 67.7 77.78 64.51 73.37C61.32 68.96 58.88 67.08 58.88 67.08C58.88 67.08 47.34 69.71 39.92 73.84C35.78 76.15 30.68 81.21 31.24 83.08C31.8 84.96 42.43 84.47 51.37 84.21C60.85 83.93 65.83 84.92 67.42 84.07Z" fill="#FBBB02"/>
<path d="M31.19 82.34C31.19 82.34 41.94 81.59 46.77 80.93C51.6 80.27 54.73 79.82 56.58 79.38C58.55 78.91 62.77 77.69 62.77 77.69L63.05 79.66C63.05 79.66 52.82 81.96 46.91 82.48C41.71 82.93 33.21 83.56 32.5 83.56C31.79 83.56 31.37 83.23 31.19 83C31.01 82.77 31.19 82.34 31.19 82.34Z" fill="#FE5F12"/>
<path d="M65.45 78.51C65.45 78.9529 65.2793 79.3777 64.9755 79.6909C64.6717 80.0041 64.2597 80.18 63.83 80.18C63.4004 80.18 62.9883 80.0041 62.6845 79.6909C62.3807 79.3777 62.21 78.9529 62.21 78.51C62.21 78.0671 62.3807 77.6423 62.6845 77.3291C62.9883 77.0159 63.4004 76.84 63.83 76.84C64.2597 76.84 64.6717 77.0159 64.9755 77.3291C65.2793 77.6423 65.45 78.0671 65.45 78.51Z" fill="#FE5F12"/>
<path d="M82.15 73.6C81.39 77.02 78.31 79.38 74.37 77.97C71.44 76.92 70.36 73.37 71.47 70.05C72.58 66.73 75.76 65.2 78.81 65.82C81.88 66.43 82.91 70.18 82.15 73.6Z" fill="#2C2B2C"/>
<path d="M120.951 46.5852C120.951 46.5852 151.039 20.9502 151.747 20.2955C152.455 19.6407 153.016 18.2044 151.763 17.8069C150.509 17.4094 109.367 39.2808 109.367 39.2808L83.1446 45.3661C83.1446 45.3661 81.3756 45.8056 81.2425 47.014C81.1094 48.2224 82.0858 48.5851 82.5403 48.7293C82.9949 48.8734 106.581 56.2167 107.964 56.61C109.681 57.1013 108.494 59.3853 108.494 59.3853L86.1604 78.0884C86.1604 78.0884 76.7955 85.0325 76.6011 85.6454C76.315 86.5476 77.2612 87.3404 78.4658 87.0554C79.3994 86.836 143.795 59.9237 146.971 57.679C147.832 57.0654 148.815 55.0426 146.315 54.2497C143.815 53.4569 122.066 52.9416 122.066 52.9416L120.951 46.5852Z" fill="#FEB804"/>
<path d="M118.265 42.9366C117.386 43.5824 116.775 44.935 118.071 45.4369C119.363 45.9298 146.313 54.2566 146.313 54.2566C146.313 54.2566 121.507 65.8165 114.024 69.2416C106.541 72.6668 81.8796 83.6282 80.2026 84.4228C78.5598 85.2055 77.0646 85.9289 76.6443 85.6288C76.5751 85.5841 76.6076 85.1472 79.3645 82.7396C81.8801 80.5435 106.18 58.9851 107.119 58.1762C108.058 57.3673 108.872 56.6858 109.331 56.3158C109.789 55.9458 111.605 53.7096 109.511 53.0456C107.418 52.3817 83.1446 45.3661 83.1446 45.3661C83.1446 45.3661 104.252 36.5293 110.262 34.259C116.273 31.9888 150.847 17.5164 151.763 17.8069C152.679 18.0974 119.154 42.2861 118.265 42.9366Z" fill="#FFC927"/>
<path d="M113.011 56.7326C114.816 55.342 116.077 55.5977 116.674 56.2722C117.443 57.1452 117.122 58.4912 115.42 59.702C112.733 61.6242 92.977 75.7858 92.2392 76.2718C90.8406 77.1926 89.5324 76.179 91.0666 74.6873C92.3442 73.4552 111.145 58.172 113.011 56.7326Z" fill="#FFE567"/>
<path d="M94.4496 46.8593C91.5691 47.6967 90.1119 44.6196 92.2553 43.3818C94.3988 42.1439 107.596 36.7636 110.28 35.6366C112.964 34.5096 128.711 27.6868 129.912 27.219C131.503 26.6016 131.96 27.8836 130.825 28.6909C129.697 29.5003 118.206 35.4519 113.234 37.7709C109.389 39.5684 97.189 46.0606 94.4496 46.8593Z" fill="#FFE567"/>
<path d="M76.491 69.6501H76.9475V74.4146H76.491V69.6501Z" fill="#4C889B"/>
<path d="M78.5692 70.134C78.9102 70.134 79.2748 70.0071 79.5701 69.5806L79.1991 69.3053C78.8457 69.8148 78.3716 69.6832 77.8767 69.4895L77.818 69.4666C77.4887 69.3397 77.0981 69.2695 76.7193 69.2695V69.7419C77.0407 69.7419 77.3837 69.8027 77.6589 69.9093L77.7156 69.9315C77.9197 70.0112 78.2334 70.134 78.5692 70.134Z" fill="#4C889B"/>
<path d="M75.1784 75.3688C75.3121 75.2244 75.955 75.0361 76.1246 74.8728C76.2941 74.7095 76.1226 74.5199 76.2035 74.1318C76.3065 73.6372 76.7193 73.5798 76.7193 73.5798C76.7193 73.5798 77.132 73.6372 77.2351 74.1318C77.3159 74.5192 77.1438 74.7095 77.314 74.8728C77.4835 75.0361 78.1271 75.2244 78.2601 75.3688C78.3997 75.52 78.4055 75.7204 78.2601 75.7893C78.2601 75.7893 77.7724 75.9964 76.7193 75.9964C75.6662 75.9964 75.1784 75.7893 75.1784 75.7893C75.0539 75.7488 75.0389 75.52 75.1784 75.3688Z" fill="#4C889B"/>
<path d="M76.9455 70.2777C76.9455 70.3108 76.9775 70.4775 76.7943 70.5173C76.6338 70.5517 76.4904 70.4789 76.4904 70.2737C76.4904 70.105 76.506 70.0267 76.506 70.0267C76.506 70.0267 76.9455 70.1765 76.9455 70.2777Z" fill="#335E68"/>
<path d="M77.2618 69.7642C77.2618 69.4544 77.0192 68.6142 76.7193 68.6142C76.4193 68.6142 76.1767 69.4544 76.1767 69.7642C76.1767 70.0739 76.4193 70.3257 76.7193 70.3257C77.0192 70.3257 77.2618 70.0746 77.2618 69.7642Z" fill="#4C889B"/>
<path d="M77.0779 68.4449C77.0779 68.5433 77.0401 68.6377 76.9729 68.7073C76.9056 68.7769 76.8144 68.816 76.7193 68.816C76.6241 68.816 76.5329 68.7769 76.4657 68.7073C76.3984 68.6377 76.3606 68.5433 76.3606 68.4449C76.3606 68.3464 76.3984 68.252 76.4657 68.1824C76.5329 68.1128 76.6241 68.0737 76.7193 68.0737C76.8144 68.0737 76.9056 68.1128 76.9729 68.1824C77.0401 68.252 77.0779 68.3464 77.0779 68.4449Z" fill="#4C889B"/>
<path d="M79.6999 69.3485C79.6999 69.4469 79.6621 69.5413 79.5949 69.6109C79.5276 69.6805 79.4364 69.7196 79.3413 69.7196C79.2462 69.7196 79.1549 69.6805 79.0877 69.6109C79.0204 69.5413 78.9826 69.4469 78.9826 69.3485C78.9826 69.25 79.0204 69.1556 79.0877 69.086C79.1549 69.0164 79.2462 68.9773 79.3413 68.9773C79.4364 68.9773 79.5276 69.0164 79.5949 69.086C79.6621 69.1556 79.6999 69.25 79.6999 69.3485Z" fill="#4C889B"/>
<path d="M74.8687 70.134C75.2045 70.134 75.5181 70.0112 75.7222 69.9315L75.779 69.9093C76.0548 69.8033 76.3971 69.7419 76.7186 69.7419V69.2695C76.3391 69.2695 75.9492 69.3397 75.6199 69.4666L75.5612 69.4895C75.0656 69.6832 74.5922 69.8148 74.2388 69.3053L73.8677 69.5806C74.1638 70.0071 74.5276 70.134 74.8687 70.134Z" fill="#4C889B"/>
<path d="M76.4017 73.9179C76.3078 73.9915 76.3189 74.1217 76.3241 74.1413C76.3371 74.1885 76.3828 74.2169 76.4265 74.2337C76.5399 74.2769 76.6691 74.2668 76.778 74.2148C76.8569 74.177 77.0166 74.0616 77.0003 73.953C76.9736 73.7741 76.4963 73.8437 76.4017 73.9179Z" fill="#81AFC1"/>
<path d="M76.9103 75.578C76.4252 75.6921 75.9153 75.6347 75.4992 75.4883C75.3251 75.4269 75.3877 75.3607 75.3975 75.3526C75.4816 75.2811 75.5886 75.2318 75.7027 75.2224C75.91 75.2055 76.0744 75.2885 76.2732 75.3499C76.4989 75.4194 76.7382 75.4424 76.9723 75.4167C77.0055 75.4134 77.042 75.41 77.0701 75.4296C77.179 75.5051 76.9103 75.578 76.9103 75.578Z" fill="#81AFC1"/>
<path d="M76.6638 68.4577C76.6286 68.4739 76.5882 68.4833 76.5517 68.4698C76.5002 68.4509 76.4708 68.3902 76.476 68.3342C76.4858 68.2323 76.6384 68.0939 76.7414 68.1472C76.8777 68.2181 76.7564 68.4145 76.6638 68.4577Z" fill="#81AFC1"/>
<path d="M76.3378 69.5516C76.4297 69.665 76.6358 69.6481 76.7382 69.3869C76.8073 69.2101 76.7864 69.0104 76.7766 68.949C76.7519 68.7843 76.611 68.7458 76.5132 68.8869C76.3078 69.1818 76.2778 69.478 76.3378 69.5516Z" fill="#81AFC1"/>
<path d="M74.2146 69.3971C74.2146 69.4295 74.2022 69.4605 74.1801 69.4834C74.1579 69.5063 74.1279 69.5192 74.0966 69.5192C74.0653 69.5192 74.0353 69.5063 74.0132 69.4834C73.991 69.4605 73.9786 69.4295 73.9786 69.3971C73.9786 69.3647 73.991 69.3336 74.0132 69.3107C74.0353 69.2878 74.0653 69.2749 74.0966 69.2749C74.1279 69.2749 74.1579 69.2878 74.1801 69.3107C74.2022 69.3336 74.2146 69.3647 74.2146 69.3971Z" fill="#4C889B"/>
<path d="M72.767 73.9442L73.9773 69.366C73.9773 69.366 74.0471 69.2796 74.0966 69.2796C74.1462 69.2796 74.2185 69.366 74.2185 69.366L75.4321 73.9503L75.2593 74.0002L74.1866 69.9356L74.0073 69.9531L72.9398 73.9935L72.767 73.9442Z" fill="#4C889B"/>
<path d="M75.4386 73.9543H72.7546C72.7546 74.2641 73.4602 74.6832 74.0966 74.6832C74.733 74.6832 75.4386 74.2357 75.4386 73.9543Z" fill="#81AFC1"/>
<path d="M75.4386 73.9631C75.4386 74.0191 75.2972 74.0729 75.0455 74.1125C74.7939 74.1521 74.4525 74.1743 74.0966 74.1743C73.7407 74.1743 73.3994 74.1521 73.1477 74.1125C72.896 74.0729 72.7546 74.0191 72.7546 73.9631C72.7546 73.9071 72.896 73.8534 73.1477 73.8137C73.3994 73.7741 73.7407 73.7519 74.0966 73.7519C74.4525 73.7519 74.7939 73.7741 75.0455 73.8137C75.2972 73.8534 75.4386 73.9071 75.4386 73.9631Z" fill="#335E68"/>
<path d="M74.0966 73.82C74.6535 73.82 75.0662 73.8734 75.2606 73.9273C75.2951 73.9368 75.2951 73.9888 75.2606 73.9982C75.0662 74.0522 74.6535 74.1055 74.0966 74.1055C73.5397 74.1055 73.127 74.0529 72.9326 73.9989C72.8981 73.9894 72.8981 73.9375 72.9326 73.928C73.127 73.8734 73.5397 73.82 74.0966 73.82ZM74.0966 73.7519C73.3552 73.7519 72.7546 73.8464 72.7546 73.9631C72.7546 74.0799 73.3552 74.1743 74.0966 74.1743C74.838 74.1743 75.4386 74.0799 75.4386 73.9631C75.4386 73.8464 74.838 73.7519 74.0966 73.7519Z" fill="#A3CDD9"/>
<path d="M73.691 74.4436C73.8169 74.5077 73.7934 74.5482 73.7164 74.5563C73.5639 74.5725 73.3135 74.4733 73.1635 74.3397C73.1198 74.3005 73.0663 74.1669 73.2111 74.1892C73.4354 74.2229 73.4191 74.3039 73.691 74.4436Z" fill="#A3CDD9"/>
<path d="M74.0073 69.3748V69.3728C74.0073 69.3215 74.0477 69.2796 74.0973 69.2796C74.1468 69.2796 74.1872 69.3215 74.1872 69.3728V69.3761V74.1777C74.1872 74.229 74.1468 74.2708 74.0973 74.2708C74.0477 74.2708 74.0073 74.229 74.0073 74.1777V69.3748Z" fill="#4C889B"/>
<path d="M74.4553 69.3721C74.4553 69.4705 74.4175 69.5649 74.3502 69.6346C74.2829 69.7042 74.1917 69.7433 74.0966 69.7433C74.0015 69.7433 73.9103 69.7042 73.843 69.6346C73.7758 69.5649 73.738 69.4705 73.738 69.3721C73.738 69.2737 73.7758 69.1793 73.843 69.1096C73.9103 69.04 74.0015 69.0009 74.0966 69.0009C74.1917 69.0009 74.2829 69.04 74.3502 69.1096C74.4175 69.1793 74.4553 69.2737 74.4553 69.3721Z" fill="#4C889B"/>
<path d="M74.1579 69.0765C74.2446 69.117 74.2055 69.1946 74.1879 69.2176C74.1403 69.2803 74.0627 69.283 74.0053 69.3505C73.9805 69.3795 73.9675 69.4463 73.9121 69.4619C73.8612 69.476 73.839 69.4342 73.8364 69.4166C73.8143 69.281 73.8632 69.1865 73.9492 69.1204C73.989 69.0893 74.0712 69.036 74.1579 69.0765Z" fill="#81AFC1"/>
<path d="M78.0058 73.9388L79.2317 69.3653C79.2317 69.3653 79.3021 69.279 79.3517 69.279C79.4013 69.279 79.4736 69.366 79.4736 69.366L80.6715 73.955L80.4981 74.0049L79.4384 69.9356L79.2591 69.9531L78.178 73.9888L78.0058 73.9388Z" fill="#4C889B"/>
<path d="M80.6774 73.9597L77.9934 73.9496C77.9921 74.2594 78.6964 74.6811 79.3328 74.6832C79.9692 74.6859 80.6767 74.2405 80.6774 73.9597Z" fill="#81AFC1"/>
<path d="M79.336 73.7518C80.0771 73.7545 80.6776 73.8513 80.6772 73.968C80.6769 74.0846 80.0757 74.177 79.3346 74.1743C78.5934 74.1716 77.9929 74.0748 77.9933 73.9581C77.9937 73.8415 78.5948 73.7491 79.336 73.7518Z" fill="#335E68"/>
<path d="M79.3361 73.82C79.8929 73.8221 80.3057 73.8767 80.4994 73.9314C80.5339 73.9408 80.5333 73.9928 80.4994 74.0022C80.305 74.0556 79.8923 74.1075 79.3354 74.1055C78.7785 74.1035 78.3658 74.0488 78.1721 73.9941C78.1375 73.9847 78.1382 73.9327 78.1721 73.9233C78.3658 73.87 78.7792 73.818 79.3361 73.82ZM79.3361 73.7519C78.5946 73.7492 77.9934 73.8416 77.9934 73.9584C77.9928 74.0751 78.5933 74.1716 79.3347 74.1743C80.0762 74.177 80.6774 74.0846 80.6774 73.9678C80.678 73.8518 80.0775 73.7546 79.3361 73.7519Z" fill="#A3CDD9"/>
<path d="M78.9279 74.4416C79.0537 74.5064 79.0185 74.5367 78.9415 74.5448C78.789 74.561 78.5601 74.449 78.3905 74.3154C78.3449 74.2789 78.2653 74.1487 78.4492 74.1851C78.669 74.2297 78.6748 74.3113 78.9279 74.4416Z" fill="#A3CDD9"/>
<path d="M79.2611 69.3741V69.3721C79.2611 69.3208 79.3015 69.2796 79.3511 69.2796C79.4006 69.2796 79.4404 69.3215 79.4404 69.3728V69.3761L79.4241 74.1777C79.4241 74.229 79.3837 74.2702 79.3341 74.2702C79.2845 74.2702 79.2448 74.2283 79.2448 74.177L79.2611 69.3741Z" fill="#4C889B"/>
<path d="M79.3771 69.0731C79.4639 69.1136 79.4273 69.1933 79.4071 69.2142C79.3687 69.2547 79.323 69.2871 79.28 69.3215C79.2337 69.3586 79.1959 69.3971 79.1235 69.3532C79.0413 69.3039 79.0915 69.1838 79.1646 69.1271C79.2037 69.0968 79.2904 69.0333 79.3771 69.0731Z" fill="#81AFC1"/>
</svg>
