<?xml version="1.0" encoding="UTF-8"?>
<svg xmlns="http://www.w3.org/2000/svg" xmlns:xlink="http://www.w3.org/1999/xlink" width="269pt" height="236pt" viewBox="0 0 269 236" version="1.1">
<g id="surface1">
<path style=" stroke:none;fill-rule:evenodd;fill:rgb(14.509804%,13.72549%,49.019608%);fill-opacity:1;" d="M 40.191406 42.929688 C 44.917969 44.800781 49.355469 44.308594 53.757812 42.546875 C 54.597656 42.210938 55.035156 41.855469 54.925781 40.925781 C 54.746094 39.386719 54.789062 37.816406 54.519531 36.292969 C 54.0625 33.730469 52.78125 31.5625 50.628906 29.917969 C 49.890625 29.355469 49.167969 28.777344 48.34375 28.136719 C 50.476562 26.15625 51.582031 23.734375 52.167969 21.09375 C 52.332031 20.371094 52.605469 20.054688 53.371094 20.140625 C 53.703125 20.175781 54.042969 20.144531 54.382812 20.144531 C 108.171875 20.144531 161.964844 20.15625 215.757812 20.109375 C 217.324219 20.105469 217.988281 20.46875 218.292969 21.972656 C 218.769531 24.308594 219.945312 26.375 221.847656 28.117188 C 221.488281 28.40625 221.21875 28.667969 220.90625 28.867188 C 216.984375 31.390625 215.363281 35.03125 215.300781 39.429688 C 215.25 42.769531 214.828125 41.839844 217.796875 42.996094 C 221.824219 44.566406 225.871094 44.492188 230.011719 42.96875 C 230.363281 45.542969 231.398438 47.714844 233.246094 49.449219 C 233.992188 50.152344 233.441406 50.597656 233.136719 51.109375 C 229.726562 56.828125 226.308594 62.539062 222.882812 68.246094 C 210.273438 89.273438 197.664062 110.296875 185.058594 131.320312 C 173.675781 150.304688 162.289062 169.289062 150.929688 188.285156 C 150.4375 189.109375 149.960938 189.550781 148.882812 189.503906 C 146.761719 189.410156 144.632812 189.425781 142.511719 189.5 C 141.585938 189.535156 141.273438 189.15625 141.019531 188.402344 C 139.914062 185.136719 138.1875 182.207031 135.511719 179.898438 C 133.21875 177.917969 133.296875 178.046875 131.066406 179.816406 C 128.207031 182.089844 126.367188 185.105469 124.949219 188.34375 C 124.5625 189.234375 124.085938 189.542969 123.105469 189.496094 C 121.429688 189.425781 119.730469 189.351562 118.070312 189.523438 C 116.996094 189.632812 116.59375 189.210938 116.148438 188.449219 C 112.394531 182.054688 108.613281 175.679688 104.839844 169.296875 C 81.890625 130.449219 58.949219 91.597656 35.960938 52.769531 C 35.238281 51.546875 35.1875 50.882812 36.382812 49.933594 C 38.566406 48.203125 39.757812 45.851562 40.191406 42.929688 Z M 102.902344 79.378906 C 102.902344 81.945312 102.90625 84.507812 102.90625 87.074219 C 95.394531 89.195312 88.113281 88.839844 81.144531 85.210938 C 76.539062 82.8125 72.871094 79.402344 69.691406 75.464844 C 69.214844 74.871094 68.738281 74.273438 68.257812 73.679688 C 68.136719 74.503906 68.238281 75.1875 68.363281 75.867188 C 69.800781 83.796875 72.675781 91.140625 78.128906 97.390625 C 81.917969 101.734375 86.386719 105.269531 92.183594 106.835938 C 93.722656 107.253906 94.023438 107.835938 94.003906 109.214844 C 93.921875 114.890625 93.992188 120.566406 93.941406 126.246094 C 93.929688 127.335938 94.214844 127.738281 95.425781 127.707031 C 98.5 127.628906 101.582031 127.679688 104.660156 127.679688 C 104.683594 127.949219 104.726562 128.214844 104.726562 128.480469 C 104.726562 136.730469 104.726562 144.984375 104.730469 153.234375 C 104.730469 154.9375 104.734375 154.941406 106.566406 154.941406 C 112.5 154.941406 118.4375 154.980469 124.371094 154.910156 C 125.648438 154.894531 125.96875 155.25 125.945312 156.4375 C 125.863281 159.96875 125.964844 163.507812 125.886719 167.042969 C 125.863281 168.175781 126.199219 168.5 127.378906 168.480469 C 131.464844 168.417969 135.554688 168.40625 139.640625 168.488281 C 140.9375 168.515625 141.25 168.101562 141.226562 166.933594 C 141.15625 163.449219 141.269531 159.964844 141.167969 156.484375 C 141.128906 155.164062 141.605469 154.902344 142.875 154.914062 C 148.863281 154.972656 154.851562 154.941406 160.84375 154.941406 C 163.191406 154.941406 163.1875 154.941406 163.191406 152.773438 C 163.207031 144.414062 163.226562 136.058594 163.242188 127.699219 C 165.707031 127.691406 168.167969 127.683594 170.632812 127.679688 C 172.46875 127.675781 172.46875 127.675781 172.46875 125.980469 C 172.46875 120.351562 172.539062 114.722656 172.429688 109.097656 C 172.394531 107.335938 172.863281 106.433594 174.6875 105.6875 C 186.855469 100.710938 195.214844 92.398438 198.632812 79.933594 C 199.128906 78.121094 199.515625 76.285156 199.953125 74.460938 C 190.105469 83.894531 179.007812 88.417969 165.199219 84.074219 C 165.199219 82.636719 165.199219 81.199219 165.199219 79.761719 C 169.128906 77.269531 172.148438 73.949219 174.816406 70.238281 C 174.632812 70.175781 174.578125 70.136719 174.53125 70.140625 C 165.878906 71.445312 157.589844 70.617188 149.851562 66.375 C 149.496094 66.175781 148.785156 66.238281 148.410156 66.453125 C 145.828125 67.933594 143.058594 68.929688 140.078125 69.238281 C 133.894531 69.878906 128 69.148438 122.917969 65.339844 C 122.269531 64.855469 121.925781 64.964844 121.363281 65.382812 C 116.296875 69.152344 110.492188 70.777344 104.136719 70.65625 C 101.140625 70.597656 98.148438 70.371094 94.933594 70.210938 C 97.332031 73.578125 99.820312 76.707031 102.902344 79.378906 Z M 101.328125 58.980469 C 98.640625 50.425781 95.996094 41.984375 93.332031 33.546875 C 92.855469 32.042969 92.636719 31.941406 91.050781 32.394531 C 83.191406 34.640625 75.332031 36.894531 67.476562 39.15625 C 65.917969 39.605469 65.785156 39.84375 66.25 41.339844 C 68.035156 47.074219 69.835938 52.800781 71.628906 58.53125 C 72.488281 61.273438 73.34375 64.011719 74.21875 66.804688 C 75.382812 66.054688 77.78125 66.976562 77.152344 64.449219 C 77.136719 64.378906 77.679688 64.136719 77.984375 64.046875 C 84.238281 62.253906 90.5 60.480469 96.746094 58.664062 C 97.34375 58.492188 97.738281 58.488281 97.851562 59.117188 C 97.996094 59.921875 98.511719 59.839844 99.089844 59.667969 C 99.777344 59.460938 100.464844 59.246094 101.328125 58.980469 Z M 187.164062 41.894531 C 184.019531 40.753906 180.890625 39.613281 177.757812 38.480469 C 175.976562 37.839844 175.953125 37.839844 175.308594 39.457031 C 173.015625 45.195312 170.777344 50.957031 168.410156 56.671875 C 167.929688 57.835938 168.359375 58.160156 169.339844 58.425781 C 170.210938 58.664062 171.03125 59.453125 171.621094 57.867188 C 173.460938 52.9375 175.464844 48.0625 177.445312 43.183594 C 177.609375 42.769531 178.28125 42.125 178.355469 42.167969 C 179.25 42.675781 180.773438 42.355469 181.023438 43.675781 C 181.210938 44.675781 181.058594 45.738281 181.058594 46.894531 C 180.382812 46.667969 179.964844 46.535156 179.550781 46.386719 C 177.597656 45.679688 177.65625 45.703125 176.90625 47.492188 C 176.550781 48.335938 176.671875 48.714844 177.582031 49.015625 C 179.324219 49.585938 181.015625 50.289062 182.761719 50.863281 C 183.8125 51.207031 183.382812 51.777344 183.152344 52.363281 C 182.917969 52.945312 182.839844 53.660156 181.820312 53.25 C 180.324219 52.65625 178.792969 52.140625 177.28125 51.585938 C 175.226562 50.832031 175.289062 50.855469 174.519531 52.761719 C 174.179688 53.59375 174.390625 53.886719 175.1875 54.15625 C 176.769531 54.683594 178.300781 55.371094 179.902344 55.832031 C 181.195312 56.207031 181.601562 56.703125 180.96875 57.960938 C 180.316406 59.246094 179.871094 60.625 179.308594 62.039062 C 180.054688 62.339844 180.722656 62.589844 181.375 62.871094 C 182.105469 63.183594 182.550781 63.160156 182.832031 62.269531 C 183.234375 60.992188 183.867188 59.785156 184.304688 58.519531 C 184.570312 57.75 184.929688 57.664062 185.664062 57.957031 C 187.207031 58.578125 188.804688 59.070312 190.339844 59.703125 C 191.34375 60.121094 191.898438 60.089844 192.289062 58.9375 C 192.84375 57.285156 192.9375 57.308594 191.300781 56.707031 C 190.210938 56.304688 189.109375 55.90625 188.015625 55.511719 C 185.679688 54.667969 185.679688 54.671875 186.882812 52.386719 C 188.796875 53.085938 190.707031 53.8125 192.640625 54.476562 C 192.96875 54.585938 193.585938 54.5625 193.75 54.363281 C 194.976562 52.890625 194.675781 51.953125 192.851562 51.25 C 192.449219 51.09375 192.0625 50.902344 191.660156 50.71875 C 193.648438 47.75 193.757812 47.753906 196.097656 48.554688 C 197.226562 48.9375 197.238281 49.398438 196.851562 50.328125 C 195.246094 54.203125 193.675781 58.089844 192.191406 62.011719 C 191.753906 63.160156 191.285156 63.742188 189.457031 63.097656 C 188.445312 62.742188 187.527344 62.140625 186.515625 61.621094 C 186.230469 62.433594 186.023438 63.160156 185.726562 63.84375 C 185.414062 64.558594 185.492188 65.058594 186.320312 65.328125 C 187.949219 65.855469 189.542969 66.546875 191.210938 66.878906 C 193.011719 67.234375 193.921875 66.605469 194.578125 64.984375 C 196.765625 59.546875 198.910156 54.097656 201.144531 48.675781 C 201.609375 47.542969 201.335938 47.035156 200.1875 46.644531 C 197.347656 45.667969 194.539062 44.628906 191.730469 43.578125 C 191.1875 43.375 190.34375 43.367188 190.746094 42.324219 C 191.171875 41.230469 191.800781 41.714844 192.453125 41.953125 C 195.0625 42.90625 197.671875 43.859375 200.28125 44.8125 C 203.277344 45.914062 203.277344 45.914062 204.152344 42.808594 C 203.757812 42.652344 203.351562 42.484375 202.945312 42.332031 C 199.765625 41.164062 196.582031 40.003906 193.40625 38.828125 C 192.929688 38.652344 192.132812 38.59375 192.589844 37.796875 C 193.191406 36.75 192.480469 36.503906 191.6875 36.253906 C 191.082031 36.0625 190.472656 35.871094 189.78125 35.652344 C 189.570312 37.25 188.777344 37.203125 187.578125 36.730469 C 184.636719 35.574219 181.644531 34.53125 178.671875 33.441406 C 177.023438 32.839844 177.136719 32.894531 176.335938 34.464844 C 175.683594 35.757812 176.289062 36.09375 177.390625 36.476562 C 180.433594 37.53125 183.429688 38.71875 186.484375 39.738281 C 187.746094 40.160156 188.1875 40.644531 187.164062 41.894531 Z M 141.945312 53.351562 C 147.503906 53.878906 153.167969 54.429688 158.832031 54.949219 C 159.527344 55.015625 159.800781 55.21875 159.753906 55.945312 C 159.738281 56.222656 160.195312 56.644531 160.539062 56.789062 C 160.921875 56.953125 161.4375 56.808594 161.859375 56.925781 C 162.9375 57.214844 163.152344 56.78125 163.242188 55.816406 C 163.59375 52.035156 164.054688 48.261719 164.460938 44.480469 C 164.652344 42.75 164.433594 42.515625 162.664062 42.34375 C 155.546875 41.648438 148.425781 40.96875 141.3125 40.230469 C 140.109375 40.109375 139.511719 40.453125 139.394531 41.613281 C 138.984375 45.660156 138.546875 49.703125 138.140625 53.753906 C 138.113281 54.019531 138.230469 54.527344 138.347656 54.550781 C 139.277344 54.710938 140.242188 54.902344 141.160156 54.808594 C 141.457031 54.777344 141.660156 53.917969 141.945312 53.351562 Z M 137.269531 34.804688 C 137.429688 35.707031 137.621094 36.238281 137.597656 36.761719 C 137.535156 37.976562 138.121094 38.242188 139.308594 38.269531 C 145.683594 38.417969 152.058594 38.6875 158.429688 38.851562 C 161.132812 38.921875 163.867188 38.765625 165.132812 41.785156 C 165.164062 41.863281 165.304688 41.90625 165.429688 41.988281 C 166.292969 41.421875 167.167969 40.851562 168.28125 40.125 C 165.847656 37.300781 163.503906 34.515625 161.078125 31.796875 C 159.125 29.605469 159.078125 29.640625 156.828125 31.535156 C 156.714844 31.628906 156.65625 31.785156 156.59375 31.882812 C 157.730469 33.140625 158.84375 34.375 160.175781 35.847656 C 154.914062 35.621094 150.046875 35.414062 144.9375 35.195312 C 146.398438 33.449219 147.703125 31.929688 148.957031 30.378906 C 150.511719 28.464844 150.457031 28.496094 148.511719 27 C 147.742188 26.40625 147.453125 26.660156 146.964844 27.273438 C 145.605469 28.972656 144.183594 30.628906 142.761719 32.285156 C 141.382812 33.886719 140.136719 35.746094 137.269531 34.804688 Z M 125.101562 52.050781 C 125.132812 51.5625 125.140625 51.300781 125.171875 51.039062 C 125.667969 46.410156 126.167969 41.785156 126.65625 37.15625 C 126.699219 36.742188 126.75 35.984375 126.648438 35.957031 C 125.6875 35.722656 124.691406 35.554688 123.703125 35.535156 C 123.554688 35.535156 123.292969 36.378906 123.238281 36.851562 C 122.679688 41.6875 122.15625 46.523438 121.617188 51.359375 C 121.546875 52.011719 121.449219 52.542969 120.496094 52.640625 C 115.550781 53.136719 110.613281 53.722656 105.671875 54.25 C 103.882812 54.441406 103.941406 54.40625 104.09375 56.042969 C 104.203125 57.207031 104.609375 57.808594 105.925781 57.472656 C 106.25 57.390625 106.59375 57.386719 106.925781 57.347656 C 115.140625 56.421875 123.351562 55.484375 131.570312 54.582031 C 133.847656 54.332031 133.875 54.320312 133.433594 52.136719 C 133.292969 51.425781 133.09375 51.164062 132.253906 51.28125 C 129.945312 51.59375 127.617188 51.789062 125.101562 52.050781 Z M 117.855469 31.417969 C 117.722656 30.570312 117.636719 29.777344 117.457031 29.007812 C 117.390625 28.714844 117.09375 28.230469 116.925781 28.238281 C 115.984375 28.285156 115 28.335938 114.148438 28.671875 C 113.921875 28.761719 114 29.871094 114.148438 30.460938 C 114.453125 31.683594 113.785156 31.910156 112.753906 32.011719 C 109.585938 32.328125 106.433594 32.761719 103.257812 33 C 101.941406 33.097656 101.835938 33.691406 102.019531 34.660156 C 102.175781 35.480469 101.882812 36.496094 103.5 36.28125 C 107.539062 35.746094 111.597656 35.371094 115.648438 34.917969 C 120.308594 34.398438 124.96875 33.871094 129.625 33.332031 C 129.925781 33.296875 130.460938 33.117188 130.457031 33.019531 C 130.421875 32.113281 130.402344 31.179688 130.113281 30.335938 C 130.042969 30.128906 129.003906 30.132812 128.429688 30.195312 C 124.941406 30.570312 121.457031 30.996094 117.855469 31.417969 Z M 111.332031 52.339844 C 111.976562 52.160156 112.605469 51.914062 113.257812 51.8125 C 114.277344 51.65625 114.535156 51.269531 114.132812 50.304688 C 112.417969 46.1875 110.75 42.050781 109.097656 37.910156 C 108.808594 37.183594 108.441406 37 107.722656 37.363281 C 107.332031 37.5625 106.902344 37.71875 106.472656 37.8125 C 105.523438 38.023438 105.539062 38.46875 105.914062 39.203125 C 106.570312 40.503906 107.167969 41.832031 107.710938 43.175781 C 108.9375 46.203125 110.113281 49.25 111.332031 52.339844 Z M 111.332031 52.339844 "/>
<path style=" stroke:none;fill-rule:evenodd;fill:rgb(9.411765%,40.784314%,15.294118%);fill-opacity:1;" d="M 38.539062 40.039062 C 37.902344 43.390625 36.292969 46.164062 33.441406 48.433594 C 27.875 39.011719 22.363281 29.679688 16.765625 20.203125 C 27.578125 20.203125 38.140625 20.203125 48.796875 20.203125 C 48.09375 23.242188 46.707031 25.863281 44.339844 28.179688 C 45.113281 28.839844 45.867188 29.457031 46.589844 30.101562 C 49.304688 32.515625 51.492188 35.214844 52.066406 38.878906 C 52.238281 39.957031 51.964844 40.457031 50.898438 40.746094 C 46.71875 41.878906 42.625 41.726562 38.539062 40.039062 Z M 38.539062 40.039062 "/>
<path style=" stroke:none;fill-rule:evenodd;fill:rgb(9.411765%,40.784314%,15.294118%);fill-opacity:1;" d="M 225.824219 28.222656 C 223.5625 25.871094 222.066406 23.292969 221.398438 20.210938 C 231.464844 20.210938 241.464844 20.210938 251.691406 20.210938 C 246.261719 29.261719 240.878906 38.226562 235.4375 47.296875 C 233.378906 45.15625 232.121094 42.835938 231.675781 40.046875 C 227.804688 41.621094 223.867188 41.90625 219.851562 40.871094 C 217.882812 40.363281 217.929688 40.328125 218.238281 38.464844 C 218.851562 34.796875 221.234375 32.214844 223.925781 29.808594 C 224.496094 29.300781 225.101562 28.824219 225.824219 28.222656 Z M 225.824219 28.222656 "/>
<path style=" stroke:none;fill-rule:evenodd;fill:rgb(9.411765%,40.784314%,15.294118%);fill-opacity:1;" d="M 148.320312 192.585938 C 143.285156 200.992188 138.40625 209.136719 133.371094 217.535156 C 128.441406 209.203125 123.605469 201.027344 118.609375 192.585938 C 120.636719 192.585938 122.398438 192.527344 124.15625 192.605469 C 125.238281 192.652344 125.8125 192.34375 126.351562 191.371094 C 127.632812 189.0625 129.117188 186.851562 130.558594 184.625 C 130.9375 184.039062 131.425781 183.507812 131.917969 183 C 133.082031 181.796875 133.394531 181.777344 134.601562 182.929688 C 136.871094 185.097656 138.148438 187.832031 139.3125 190.625 C 140.128906 192.585938 140.121094 192.589844 142.378906 192.585938 C 144.253906 192.585938 146.132812 192.585938 148.320312 192.585938 Z M 148.320312 192.585938 "/>
<path style=" stroke:none;fill-rule:evenodd;fill:rgb(97.647059%,5.882353%,4.705882%);fill-opacity:1;" d="M 104.660156 127.679688 C 101.578125 127.679688 98.5 127.628906 95.425781 127.707031 C 94.210938 127.738281 93.929688 127.335938 93.941406 126.246094 C 93.992188 120.566406 93.917969 114.890625 94.003906 109.214844 C 94.023438 107.832031 93.722656 107.253906 92.183594 106.835938 C 86.386719 105.269531 81.917969 101.734375 78.125 97.390625 C 72.671875 91.140625 69.800781 83.796875 68.359375 75.867188 C 68.238281 75.1875 68.136719 74.503906 68.257812 73.679688 C 68.734375 74.273438 69.210938 74.871094 69.691406 75.464844 C 72.871094 79.402344 76.539062 82.8125 81.140625 85.210938 C 88.113281 88.839844 95.394531 89.195312 102.90625 87.074219 C 102.925781 88.625 103.019531 90.179688 102.949219 91.726562 C 102.902344 92.828125 103.25 93.203125 104.449219 93.199219 C 124.144531 93.167969 143.839844 93.167969 163.535156 93.199219 C 164.78125 93.199219 165.210938 92.816406 165.179688 91.625 C 165.117188 89.109375 165.183594 86.589844 165.199219 84.074219 C 179.007812 88.417969 190.105469 83.894531 199.953125 74.460938 C 199.519531 76.285156 199.132812 78.121094 198.636719 79.933594 C 195.21875 92.398438 186.855469 100.710938 174.6875 105.6875 C 172.863281 106.433594 172.394531 107.335938 172.429688 109.097656 C 172.539062 114.722656 172.472656 120.351562 172.46875 125.980469 C 172.46875 127.675781 172.46875 127.675781 170.632812 127.679688 C 168.171875 127.683594 165.707031 127.695312 163.242188 127.699219 C 163.226562 124.753906 163.148438 121.808594 163.21875 118.863281 C 163.25 117.664062 162.886719 117.316406 161.625 117.328125 C 155.636719 117.390625 149.648438 117.363281 143.65625 117.351562 C 141.042969 117.347656 141.289062 117.644531 141.285156 115.15625 C 141.273438 111.621094 141.25 108.085938 141.300781 104.550781 C 141.316406 103.546875 141.066406 103.132812 139.910156 103.148438 C 135.714844 103.210938 131.515625 103.21875 127.320312 103.144531 C 126.066406 103.125 125.851562 103.59375 125.867188 104.648438 C 125.921875 108.234375 125.886719 111.824219 125.886719 115.414062 C 125.886719 117.351562 125.882812 117.355469 123.925781 117.355469 C 118.050781 117.355469 112.171875 117.386719 106.296875 117.328125 C 105.066406 117.316406 104.640625 117.617188 104.671875 118.847656 C 104.75 121.789062 104.671875 124.734375 104.660156 127.679688 Z M 104.660156 127.679688 "/>
<path style=" stroke:none;fill-rule:evenodd;fill:rgb(97.647059%,5.882353%,4.705882%);fill-opacity:1;" d="M 102.902344 79.378906 C 99.820312 76.707031 97.332031 73.578125 94.933594 70.214844 C 98.148438 70.375 101.144531 70.597656 104.140625 70.65625 C 110.496094 70.78125 116.300781 69.15625 121.363281 65.386719 C 121.925781 64.964844 122.269531 64.855469 122.917969 65.34375 C 128.003906 69.152344 133.898438 69.882812 140.082031 69.238281 C 143.058594 68.929688 145.828125 67.933594 148.414062 66.453125 C 148.785156 66.238281 149.496094 66.179688 149.855469 66.375 C 157.589844 70.617188 165.878906 71.449219 174.535156 70.144531 C 174.582031 70.136719 174.632812 70.175781 174.820312 70.242188 C 172.148438 73.953125 169.128906 77.269531 165.203125 79.761719 C 164.976562 78.5 164.433594 77.757812 162.902344 78.3125 C 162.460938 78.472656 161.90625 78.347656 161.402344 78.347656 C 142.667969 78.347656 123.929688 78.347656 105.191406 78.347656 C 104.800781 78.347656 104.402344 78.382812 104.019531 78.339844 C 103.179688 78.25 102.941406 78.707031 102.902344 79.378906 Z M 102.902344 79.378906 "/>
<path style=" stroke:none;fill-rule:evenodd;fill:rgb(96.078431%,48.627451%,7.058824%);fill-opacity:1;" d="M 104.660156 127.679688 C 104.671875 124.734375 104.75 121.789062 104.671875 118.847656 C 104.640625 117.613281 105.066406 117.316406 106.296875 117.328125 C 112.171875 117.386719 118.050781 117.355469 123.925781 117.355469 C 125.882812 117.355469 125.886719 117.351562 125.886719 115.414062 C 125.886719 111.824219 125.921875 108.234375 125.867188 104.648438 C 125.851562 103.59375 126.066406 103.125 127.320312 103.144531 C 131.515625 103.21875 135.714844 103.210938 139.910156 103.148438 C 141.066406 103.132812 141.316406 103.542969 141.300781 104.550781 C 141.25 108.085938 141.273438 111.621094 141.285156 115.15625 C 141.292969 117.644531 141.046875 117.347656 143.65625 117.351562 C 149.648438 117.363281 155.636719 117.390625 161.625 117.328125 C 162.886719 117.316406 163.25 117.664062 163.21875 118.863281 C 163.148438 121.808594 163.226562 124.753906 163.242188 127.699219 C 163.226562 136.058594 163.207031 144.414062 163.191406 152.773438 C 163.1875 154.941406 163.191406 154.941406 160.84375 154.941406 C 154.855469 154.941406 148.867188 154.972656 142.875 154.914062 C 141.605469 154.902344 141.128906 155.160156 141.167969 156.484375 C 141.269531 159.964844 141.160156 163.449219 141.226562 166.929688 C 141.25 168.101562 140.9375 168.511719 139.640625 168.488281 C 135.554688 168.40625 131.464844 168.417969 127.382812 168.480469 C 126.199219 168.5 125.863281 168.171875 125.886719 167.042969 C 125.964844 163.507812 125.863281 159.96875 125.945312 156.4375 C 125.972656 155.25 125.648438 154.894531 124.371094 154.910156 C 118.4375 154.976562 112.503906 154.941406 106.570312 154.941406 C 104.734375 154.941406 104.730469 154.9375 104.730469 153.234375 C 104.726562 144.984375 104.730469 136.730469 104.726562 128.480469 C 104.722656 128.214844 104.679688 127.949219 104.660156 127.679688 Z M 107.425781 136.144531 C 107.425781 141.019531 107.46875 145.898438 107.394531 150.773438 C 107.378906 152.015625 107.679688 152.414062 109.050781 152.394531 C 114.984375 152.316406 120.921875 152.402344 126.855469 152.328125 C 128.210938 152.3125 128.6875 152.585938 128.640625 153.972656 C 128.53125 157.457031 128.644531 160.941406 128.582031 164.425781 C 128.5625 165.484375 128.773438 165.957031 130.023438 165.90625 C 132.371094 165.8125 134.730469 165.824219 137.082031 165.902344 C 138.195312 165.941406 138.539062 165.59375 138.523438 164.546875 C 138.472656 161.007812 138.5625 157.46875 138.472656 153.933594 C 138.445312 152.683594 138.789062 152.3125 140.125 152.328125 C 146.398438 152.398438 152.671875 152.328125 158.941406 152.390625 C 160.191406 152.40625 160.539062 152.105469 160.527344 150.886719 C 160.476562 141.082031 160.464844 131.273438 160.539062 121.464844 C 160.546875 120.089844 160.027344 119.925781 158.8125 119.9375 C 152.652344 119.984375 146.492188 119.960938 140.332031 119.957031 C 138.488281 119.957031 138.496094 119.953125 138.496094 118.253906 C 138.503906 114.503906 138.46875 110.75 138.523438 107 C 138.535156 106.03125 138.269531 105.691406 137.207031 105.722656 C 134.804688 105.796875 132.390625 105.800781 129.988281 105.722656 C 128.890625 105.6875 128.558594 105.980469 128.578125 107.050781 C 128.644531 110.855469 128.554688 114.660156 128.632812 118.464844 C 128.65625 119.652344 128.347656 120.003906 127.066406 119.988281 C 121.074219 119.921875 115.082031 119.992188 109.089844 119.929688 C 107.800781 119.917969 107.367188 120.199219 107.390625 121.511719 C 107.476562 126.386719 107.425781 131.265625 107.425781 136.144531 Z M 107.425781 136.144531 "/>
<path style=" stroke:none;fill-rule:evenodd;fill:rgb(96.078431%,48.627451%,7.058824%);fill-opacity:1;" d="M 102.902344 79.378906 C 102.941406 78.707031 103.179688 78.25 104.019531 78.339844 C 104.402344 78.382812 104.800781 78.347656 105.191406 78.347656 C 123.929688 78.347656 142.667969 78.347656 161.402344 78.34375 C 161.90625 78.34375 162.460938 78.472656 162.902344 78.3125 C 164.433594 77.757812 164.976562 78.496094 165.203125 79.761719 C 165.203125 81.199219 165.199219 82.636719 165.199219 84.074219 C 165.183594 86.589844 165.117188 89.109375 165.179688 91.625 C 165.210938 92.816406 164.78125 93.199219 163.539062 93.199219 C 143.839844 93.171875 124.144531 93.167969 104.449219 93.199219 C 103.25 93.203125 102.902344 92.828125 102.953125 91.726562 C 103.019531 90.179688 102.925781 88.625 102.90625 87.074219 C 102.90625 84.507812 102.902344 81.945312 102.902344 79.378906 Z M 133.808594 90.574219 C 142.765625 90.574219 151.722656 90.546875 160.679688 90.605469 C 162.019531 90.613281 162.410156 90.246094 162.351562 88.988281 C 162.25 86.851562 162.324219 84.703125 162.324219 82.5625 C 162.320312 80.835938 162.316406 80.835938 160.488281 80.835938 C 144.703125 80.835938 128.917969 80.835938 113.132812 80.835938 C 111.0625 80.835938 108.988281 80.886719 106.921875 80.8125 C 105.859375 80.773438 105.585938 81.140625 105.613281 82.105469 C 105.675781 84.40625 105.707031 86.714844 105.605469 89.011719 C 105.546875 90.28125 105.949219 90.613281 107.277344 90.605469 C 116.121094 90.546875 124.964844 90.574219 133.808594 90.574219 Z M 133.808594 90.574219 "/>
<path style=" stroke:none;fill-rule:evenodd;fill:rgb(14.509804%,13.72549%,49.019608%);fill-opacity:1;" d="M 71.238281 42.742188 C 71.78125 45.6875 71.785156 45.6875 74.582031 44.882812 C 76.828125 44.238281 79.070312 43.570312 81.332031 42.964844 C 81.648438 42.882812 82.054688 43.105469 82.417969 43.183594 C 82.148438 43.390625 81.910156 43.695312 81.601562 43.789062 C 78.878906 44.597656 76.152344 45.394531 73.410156 46.140625 C 72.597656 46.359375 72.328125 46.597656 72.640625 47.472656 C 73.398438 49.59375 74.058594 51.753906 74.667969 53.921875 C 74.921875 54.828125 75.277344 54.984375 76.203125 54.691406 C 78.699219 53.910156 81.222656 53.210938 83.753906 52.535156 C 84.722656 52.277344 84.972656 51.898438 84.632812 50.9375 C 83.921875 48.925781 83.355469 46.867188 83.011719 44.714844 C 83.578125 45.753906 84.121094 46.808594 84.71875 47.832031 C 85.152344 48.582031 85.53125 49.410156 86.148438 50 C 87.773438 51.554688 87.242188 53.011719 86.082031 54.679688 C 85.644531 54 85.257812 53.398438 84.859375 52.777344 C 81.726562 54.078125 78.628906 55.363281 75.515625 56.660156 C 75.515625 56.730469 75.480469 56.84375 75.519531 56.925781 C 76.773438 59.46875 76.78125 59.492188 79.578125 58.421875 C 81.421875 57.71875 83.230469 56.929688 85.300781 56.082031 C 84.988281 56.730469 84.792969 57.144531 84.558594 57.628906 C 85.007812 57.851562 85.4375 58.0625 85.917969 58.300781 C 85.777344 58.453125 85.699219 58.628906 85.574219 58.664062 C 82.742188 59.484375 79.886719 60.246094 77.074219 61.125 C 76.148438 61.414062 75.9375 61.113281 75.703125 60.355469 C 73.898438 54.511719 72.074219 48.671875 70.199219 42.847656 C 69.910156 41.949219 70.140625 41.613281 71.042969 41.367188 C 73.941406 40.574219 76.816406 39.695312 79.71875 38.90625 C 80.046875 38.816406 80.695312 38.996094 80.847656 39.246094 C 81.351562 40.082031 80.511719 40.03125 80.027344 40.175781 C 77.09375 41.035156 74.160156 41.890625 71.238281 42.742188 Z M 71.238281 42.742188 "/>
<path style=" stroke:none;fill-rule:evenodd;fill:rgb(14.509804%,13.72549%,49.019608%);fill-opacity:1;" d="M 87.960938 47.753906 C 87.074219 46.039062 86.1875 44.324219 85.304688 42.609375 C 84.992188 42.003906 85.265625 41.785156 85.894531 41.625 C 87.1875 41.296875 88.4375 40.785156 89.746094 40.53125 C 90.871094 40.316406 90.914062 39.828125 90.558594 38.976562 C 90.269531 38.273438 90.324219 37.371094 89.125 37.351562 C 88.90625 37.347656 88.699219 36.804688 88.476562 36.492188 C 90.492188 35.734375 90.5 35.734375 91.046875 37.472656 C 92.8125 43.105469 94.542969 48.746094 96.367188 54.359375 C 96.660156 55.257812 96.492188 55.582031 95.601562 55.820312 C 93.195312 56.464844 90.804688 57.164062 88.105469 57.925781 C 88.722656 56.550781 89.226562 55.417969 89.746094 54.261719 C 90.734375 54.78125 91.605469 55.375 92.578125 55.730469 C 94.28125 56.351562 95.328125 55.578125 95.246094 53.851562 C 95.21875 53.265625 95.082031 52.6875 94.988281 52.105469 C 94.570312 49.550781 94.566406 49.550781 91.601562 49.871094 C 91.816406 50.628906 92.023438 51.363281 92.25 52.167969 C 90.742188 51.285156 90.859375 51.296875 91.054688 49.851562 C 91.371094 47.523438 91.519531 45.171875 91.734375 42.832031 C 91.871094 41.316406 90.675781 41.828125 89.898438 41.765625 C 89.070312 41.695312 88.59375 41.839844 88.664062 42.910156 C 88.765625 44.480469 88.546875 46.066406 88.464844 47.648438 C 88.296875 47.683594 88.128906 47.71875 87.960938 47.753906 Z M 87.960938 47.753906 "/>
<path style=" stroke:none;fill-rule:evenodd;fill:rgb(14.509804%,13.72549%,49.019608%);fill-opacity:1;" d="M 76.128906 48.203125 C 77.085938 47.925781 77.972656 47.761719 78.773438 47.414062 C 79.9375 46.914062 80.40625 47.324219 80.566406 48.410156 C 80.667969 49.074219 81.089844 50.238281 80.941406 50.304688 C 79.84375 50.789062 78.648438 51.082031 77.460938 51.359375 C 77.335938 51.390625 77.007812 50.960938 76.914062 50.699219 C 76.632812 49.945312 76.425781 49.164062 76.128906 48.203125 Z M 76.128906 48.203125 "/>
<path style=" stroke:none;fill-rule:evenodd;fill:rgb(14.509804%,13.72549%,49.019608%);fill-opacity:1;" d="M 86.03125 38.730469 C 85.128906 38.6875 84.460938 38.660156 83.792969 38.628906 C 83.832031 38.320312 83.765625 37.824219 83.933594 37.734375 C 84.753906 37.292969 85.527344 37.285156 86.03125 38.730469 Z M 86.03125 38.730469 "/>
<path style=" stroke:none;fill-rule:evenodd;fill:rgb(14.509804%,13.72549%,49.019608%);fill-opacity:1;" d="M 184.546875 44.386719 C 186.664062 45.160156 188.605469 45.867188 190.550781 46.578125 C 189.175781 47.316406 189.332031 49.980469 186.875 49.078125 C 184.226562 48.105469 184.21875 48.128906 184.546875 44.386719 Z M 184.546875 44.386719 "/>
<path style=" stroke:none;fill-rule:evenodd;fill:rgb(14.509804%,13.72549%,49.019608%);fill-opacity:1;" d="M 160.082031 51.867188 C 154.46875 51.335938 149.070312 50.8125 143.667969 50.332031 C 142.484375 50.226562 141.828125 49.976562 142.183594 48.589844 C 142.5 47.355469 142.546875 46.046875 142.617188 44.765625 C 142.664062 43.957031 142.921875 43.621094 143.832031 43.714844 C 149.117188 44.257812 154.40625 44.769531 159.695312 45.273438 C 160.425781 45.339844 160.855469 45.546875 160.75 46.351562 C 160.519531 48.148438 160.3125 49.953125 160.082031 51.867188 Z M 160.082031 51.867188 "/>
<path style=" stroke:none;fill-rule:evenodd;fill:rgb(96.078431%,48.627451%,7.058824%);fill-opacity:1;" d="M 138.480469 136.039062 C 138.480469 134.109375 138.539062 132.179688 138.457031 130.253906 C 138.417969 129.363281 138.738281 129.164062 139.589844 129.175781 C 142.667969 129.210938 145.75 129.222656 148.828125 129.171875 C 149.804688 129.15625 150.046875 129.492188 150.039062 130.375 C 149.996094 134.234375 150.007812 138.089844 150.03125 141.949219 C 150.039062 142.703125 149.929688 143.113281 148.964844 143.097656 C 145.828125 143.042969 142.691406 143.050781 139.558594 143.09375 C 138.660156 143.109375 138.410156 142.816406 138.433594 141.984375 C 138.488281 140.003906 138.449219 138.023438 138.449219 136.039062 C 138.460938 136.039062 138.472656 136.039062 138.480469 136.039062 Z M 147.328125 136.164062 C 147.328125 134.988281 147.386719 133.804688 147.289062 132.636719 C 147.261719 132.328125 146.773438 131.828125 146.476562 131.808594 C 144.972656 131.726562 143.460938 131.726562 141.957031 131.8125 C 141.667969 131.832031 141.183594 132.371094 141.175781 132.679688 C 141.105469 134.976562 141.152344 137.277344 141.121094 139.574219 C 141.113281 140.257812 141.359375 140.53125 142.089844 140.511719 C 143.484375 140.476562 144.882812 140.46875 146.277344 140.515625 C 147.058594 140.542969 147.386719 140.324219 147.34375 139.527344 C 147.285156 138.410156 147.328125 137.285156 147.328125 136.164062 Z M 147.328125 136.164062 "/>
<path style=" stroke:none;fill-rule:evenodd;fill:rgb(96.078431%,48.627451%,7.058824%);fill-opacity:1;" d="M 118.074219 136.15625 C 118.074219 134.230469 118.109375 132.300781 118.058594 130.378906 C 118.039062 129.511719 118.265625 129.152344 119.257812 129.171875 C 121.996094 129.234375 124.738281 129.222656 127.476562 129.175781 C 128.351562 129.160156 128.628906 129.4375 128.621094 130.269531 C 128.585938 134.175781 128.585938 138.082031 128.617188 141.988281 C 128.625 142.785156 128.421875 143.117188 127.503906 143.097656 C 124.710938 143.042969 121.914062 143.054688 119.117188 143.09375 C 118.320312 143.105469 118.046875 142.863281 118.066406 142.09375 C 118.109375 140.113281 118.082031 138.136719 118.082031 136.15625 C 118.078125 136.15625 118.078125 136.15625 118.074219 136.15625 Z M 125.914062 136.109375 C 125.914062 135.039062 125.878906 133.964844 125.925781 132.894531 C 125.960938 132.105469 125.757812 131.695312 124.820312 131.753906 C 123.816406 131.820312 122.804688 131.792969 121.796875 131.761719 C 121.128906 131.742188 120.75 131.898438 120.757812 132.636719 C 120.789062 135 120.75 137.359375 120.808594 139.714844 C 120.8125 139.980469 121.269531 140.457031 121.527344 140.464844 C 122.917969 140.503906 124.308594 140.421875 125.695312 140.386719 C 125.769531 139.230469 125.84375 138.070312 125.910156 136.914062 C 125.925781 136.648438 125.914062 136.378906 125.914062 136.109375 Z M 125.914062 136.109375 "/>
<path style=" stroke:none;fill-rule:evenodd;fill:rgb(14.509804%,13.72549%,49.019608%);fill-opacity:1;" d="M 147.328125 136.164062 C 147.328125 137.285156 147.285156 138.410156 147.34375 139.527344 C 147.386719 140.324219 147.054688 140.542969 146.277344 140.515625 C 144.882812 140.46875 143.484375 140.476562 142.089844 140.511719 C 141.359375 140.53125 141.113281 140.257812 141.121094 139.574219 C 141.148438 137.277344 141.105469 134.976562 141.175781 132.679688 C 141.183594 132.371094 141.667969 131.832031 141.957031 131.8125 C 143.460938 131.726562 144.972656 131.726562 146.476562 131.808594 C 146.773438 131.828125 147.261719 132.328125 147.285156 132.636719 C 147.386719 133.804688 147.328125 134.984375 147.328125 136.164062 Z M 147.328125 136.164062 "/>
<path style=" stroke:none;fill-rule:evenodd;fill:rgb(14.509804%,13.72549%,49.019608%);fill-opacity:1;" d="M 125.914062 136.109375 C 125.914062 136.378906 125.925781 136.648438 125.910156 136.914062 C 125.84375 138.070312 125.769531 139.230469 125.699219 140.386719 C 124.308594 140.421875 122.917969 140.503906 121.527344 140.460938 C 121.269531 140.457031 120.816406 139.980469 120.808594 139.714844 C 120.75 137.355469 120.789062 134.996094 120.761719 132.636719 C 120.75 131.898438 121.128906 131.742188 121.796875 131.761719 C 122.804688 131.792969 123.816406 131.820312 124.820312 131.753906 C 125.757812 131.691406 125.960938 132.105469 125.925781 132.894531 C 125.878906 133.964844 125.914062 135.039062 125.914062 136.109375 Z M 125.914062 136.109375 "/>
</g>
</svg>